<svg width="44" height="64" viewBox="0 0 44 64" fill="none" xmlns="http://www.w3.org/2000/svg">
<path d="M22 64C24.7614 64 27 63.1046 27 62C27 60.8954 24.7614 60 22 60C19.2386 60 17 60.8954 17 62C17 63.1046 19.2386 64 22 64Z" fill="#001A34"/>
<path fill-rule="evenodd" clip-rule="evenodd" d="M24 43.9103C35.213 42.8999 44 33.4761 44 22C44 9.84974 34.1503 0 22 0C9.84974 0 0 9.84974 0 22C0 33.4761 8.787 42.8999 20 43.9103V62H24V43.9103Z" fill="#005BFF"/>
<mask id="mask0" mask-type="alpha" maskUnits="userSpaceOnUse" x="0" y="0" width="44" height="44">
<circle cx="22" cy="22" r="22" fill="white"/>
</mask>
<g mask="url(#mask0)">
<path fill-rule="evenodd" clip-rule="evenodd" d="M42.5195 12.6199L42.5582 12.7386L44.6103 20.3972C44.6754 20.6401 44.4593 20.8537 44.2287 20.8079L44.1594 20.7862L36.8757 17.6302L37.8745 21.3578C38.0598 22.0495 37.5728 22.7628 36.8141 22.8041C36.3118 22.8315 35.8625 22.5058 35.6855 22.0417L35.647 21.923L33.6023 14.2921C33.5372 14.0492 33.7533 13.8355 33.9839 13.8813L34.0532 13.903L41.337 17.059L40.3466 13.3629C40.2056 12.8367 40.4308 12.2626 40.9167 12.0163C41.5546 11.6928 42.2816 12.0053 42.5195 12.6199ZM33.1459 18.9406C32.4422 16.3143 28.8905 14.984 25.213 15.9694C21.5355 16.9548 19.1247 19.8827 19.8285 22.5091C20.5322 25.1354 24.0839 26.4657 27.7615 25.4803C31.4389 24.4949 33.8497 21.5669 33.1459 18.9406ZM9.22718 24.8309C8.41019 22.6637 6.12703 21.3456 3.84181 21.7216C0.753645 22.2298 -1.08207 25.4092 0.0220471 28.3377C0.838953 30.5049 3.12209 31.823 5.40731 31.447C8.49558 30.9388 10.3312 27.7594 9.22718 24.8309ZM18.0677 18.5979C18.1085 18.3686 17.8955 18.1577 17.6552 18.222L10.6919 20.0879L10.5738 20.1263C9.96242 20.3626 9.6496 21.083 9.96393 21.7183C10.2088 22.2134 10.7949 22.4392 11.3284 22.2962L14.4263 21.4661L11.3096 29.1181L11.2897 29.1866C11.2493 29.4137 11.4603 29.6226 11.6984 29.5589L19.2606 27.5326L19.3811 27.4936C19.8522 27.3141 20.186 26.8586 20.1533 26.3498C20.105 25.5982 19.3956 25.1175 18.7076 25.3018L14.9333 26.3132L18.0476 18.6669L18.0677 18.5979ZM3.61975 24.1568C2.52853 24.6031 1.86077 25.7597 2.01991 26.9278C2.25331 28.6416 4.02863 29.6665 5.62939 29.0118C6.72058 28.5655 7.38834 27.4089 7.2293 26.2407C6.99583 24.5271 5.22059 23.5021 3.61975 24.1568ZM22.0481 21.9143C21.7274 20.7172 23.267 18.8697 25.8078 18.189C28.3484 17.5082 30.6055 18.3383 30.9263 19.5354C31.247 20.7325 29.7074 22.5799 27.1667 23.2607C24.626 23.9415 22.3689 23.1114 22.0481 21.9143Z" fill="white"/>
</g>
</svg>
