<svg width="34" height="58" viewBox="0 0 34 58" fill="none" xmlns="http://www.w3.org/2000/svg">
<path d="M17 58C19.7614 58 22 57.1046 22 56C22 54.8954 19.7614 54 17 54C14.2386 54 12 54.8954 12 56C12 57.1046 14.2386 58 17 58Z" fill="#001A34"/>
<path fill-rule="evenodd" clip-rule="evenodd" d="M19 33.8836C27.4463 32.8937 34 25.7122 34 17C34 7.61116 26.3888 0 17 0C7.61116 0 0 7.61116 0 17C0 25.7122 6.55366 32.8937 15 33.8836V56H19V33.8836Z" fill="#96A3AE"/>
<mask id="mask0" mask-type="alpha" maskUnits="userSpaceOnUse" x="0" y="0" width="34" height="34">
<circle cx="17" cy="17" r="17" fill="white"/>
</mask>
<g mask="url(#mask0)">
<path fill-rule="evenodd" clip-rule="evenodd" d="M32.856 9.75205L32.8859 9.84377L34.4716 15.7618C34.5219 15.9495 34.3549 16.1146 34.1768 16.0792L34.1232 16.0624L28.4949 13.6237L29.2666 16.5041C29.4099 17.0386 29.0336 17.5898 28.4472 17.6217C28.0591 17.6429 27.7119 17.3912 27.5751 17.0326L27.5454 16.9408L25.9654 11.0442C25.9151 10.8565 26.0821 10.6914 26.2603 10.7268L26.3139 10.7436L31.9423 13.1823L31.1769 10.3262C31.0679 9.91958 31.242 9.47596 31.6174 9.28563C32.1104 9.03568 32.6722 9.27717 32.856 9.75205ZM25.6128 14.6363C25.069 12.6068 22.3245 11.5789 19.4828 12.3403C16.6411 13.1018 14.7782 15.3642 15.322 17.3937C15.8658 19.4231 18.6103 20.4511 21.452 19.6897C24.2937 18.9282 26.1566 16.6657 25.6128 14.6363ZM7.13013 19.1879C6.49881 17.5132 4.73455 16.4946 2.9687 16.7852C0.582399 17.1779 -0.836104 19.6348 0.0170742 21.8977C0.648319 23.5723 2.41256 24.5908 4.17841 24.3003C6.5648 23.9076 7.98324 21.4508 7.13013 19.1879ZM13.9614 14.3714C13.9929 14.1942 13.8283 14.0313 13.6426 14.081L8.26195 15.5228L8.17073 15.5525C7.69827 15.7351 7.45655 16.2918 7.69944 16.7827C7.88869 17.1652 8.34159 17.3397 8.75381 17.2292L11.1476 16.5878L8.73927 22.5007L8.7239 22.5536C8.69267 22.7291 8.85577 22.8906 9.03975 22.8413L14.8832 21.2755L14.9763 21.2454C15.3404 21.1067 15.5983 20.7547 15.573 20.3615C15.5357 19.7808 14.9875 19.4093 14.4559 19.5518L11.5394 20.3332L13.9459 14.4248L13.9614 14.3714ZM2.79712 18.667C1.9539 19.0118 1.4379 19.9056 1.56087 20.8082C1.74123 22.1325 3.11307 22.9245 4.35002 22.4186C5.19321 22.0737 5.70921 21.1799 5.58631 20.2773C5.4059 18.9531 4.03413 18.161 2.79712 18.667ZM17.0372 16.9341C16.7893 16.0091 17.9791 14.5815 19.9424 14.0555C21.9056 13.5294 23.6497 14.1709 23.8976 15.0959C24.1454 16.0209 22.9557 17.4485 20.9925 17.9745C19.0292 18.5006 17.285 17.8591 17.0372 16.9341Z" fill="white"/>
</g>
</svg>
