<svg width="34" height="58" viewBox="0 0 34 58" fill="none" xmlns="http://www.w3.org/2000/svg">
<path d="M17 58C19.7614 58 22 57.1046 22 56C22 54.8954 19.7614 54 17 54C14.2386 54 12 54.8954 12 56C12 57.1046 14.2386 58 17 58Z" fill="#001A34"/>
<path fill-rule="evenodd" clip-rule="evenodd" d="M19 33.8836C27.4463 32.8937 34 25.7122 34 17C34 7.61116 26.3888 0 17 0C7.61116 0 0 7.61116 0 17C0 25.7122 6.55366 32.8937 15 33.8836V56H19V33.8836Z" fill="#B1B9C2"/>
<path fill-rule="evenodd" clip-rule="evenodd" d="M11.4637 25.503H22.5363V8.49699H11.4637V25.503ZM11.5556 7C10.6964 7 10 7.68879 10 8.53846V25.4615C10 26.3112 10.6964 27 11.5556 27H22.4444C23.3036 27 24 26.3112 24 25.4615V8.53846C24 7.68879 23.3036 7 22.4444 7H11.5556Z" fill="white"/>
<path d="M14.9794 25.5031L12.3301 8.49707H13.4886L22.5363 21.6841V25.5031H14.9794Z" fill="white"/>
<path d="M14.9794 25.5031L12.3301 8.49707H13.4886L22.5363 21.6841V25.5031H14.9794Z" fill="#FDB8CC"/>
<rect x="10" y="16.8105" width="13.9084" height="1.4684" fill="white"/>
<rect x="10" y="21.2158" width="13.9084" height="1.4684" fill="white"/>
<rect x="16.027" y="11.3389" width="4.98354" height="2.67212" rx="1" fill="white"/>
</svg>
